<svg width="101" height="28" viewBox="0 0 101 28" fill="none" xmlns="http://www.w3.org/2000/svg">
<path d="M5.84 24.24C4.61333 24.24 3.64 24.02 2.92 23.58C2.21333 23.1267 1.71333 22.5 1.42 21.7C1.12667 20.8867 0.98 19.9333 0.98 18.84V13C0.98 11.88 1.12667 10.92 1.42 10.12C1.71333 9.30667 2.21333 8.68 2.92 8.24C3.64 7.8 4.61333 7.58 5.84 7.58C7.04 7.58 7.97333 7.78 8.64 8.18C9.32 8.56667 9.8 9.11333 10.08 9.82C10.36 10.5267 10.5 11.34 10.5 12.26V13.66H7V12.04C7 11.72 6.98 11.4133 6.94 11.12C6.91333 10.8267 6.82 10.5867 6.66 10.4C6.5 10.2 6.22667 10.1 5.84 10.1C5.46667 10.1 5.18667 10.2 5 10.4C4.82667 10.6 4.71333 10.8533 4.66 11.16C4.62 11.4533 4.6 11.7667 4.6 12.1V19.72C4.6 20.08 4.62667 20.4133 4.68 20.72C4.74667 21.0133 4.86667 21.2533 5.04 21.44C5.22667 21.6133 5.49333 21.7 5.84 21.7C6.21333 21.7 6.48 21.6067 6.64 21.42C6.8 21.22 6.9 20.9667 6.94 20.66C6.98 20.3533 7 20.04 7 19.72V18.02H10.5V19.42C10.5 20.34 10.36 21.1667 10.08 21.9C9.81333 22.62 9.34 23.1933 8.66 23.62C7.99333 24.0333 7.05333 24.24 5.84 24.24ZM13.9095 24V7.8H17.1495V13.46C17.5762 13.0333 18.0229 12.7267 18.4895 12.54C18.9562 12.34 19.4562 12.24 19.9895 12.24C20.4562 12.24 20.8429 12.36 21.1495 12.6C21.4695 12.8267 21.7095 13.1467 21.8695 13.56C22.0295 13.96 22.1095 14.42 22.1095 14.94V24H18.8695V15.4C18.8695 15.12 18.8229 14.9067 18.7295 14.76C18.6362 14.6133 18.4629 14.54 18.2095 14.54C18.0762 14.54 17.9162 14.58 17.7295 14.66C17.5429 14.7267 17.3495 14.8267 17.1495 14.96V24H13.9095ZM28.0453 24.2C27.4586 24.2 26.9653 24.06 26.5653 23.78C26.1653 23.5 25.8653 23.1467 25.6653 22.72C25.4653 22.28 25.3653 21.8333 25.3653 21.38C25.3653 20.66 25.5053 20.0533 25.7853 19.56C26.0786 19.0667 26.4586 18.6533 26.9253 18.32C27.392 17.9867 27.9053 17.7067 28.4653 17.48C29.0253 17.24 29.5786 17.0267 30.1253 16.84V15.68C30.1253 15.48 30.1053 15.3067 30.0653 15.16C30.0253 15 29.9586 14.88 29.8653 14.8C29.772 14.7067 29.632 14.66 29.4453 14.66C29.2586 14.66 29.112 14.7 29.0053 14.78C28.912 14.86 28.8453 14.9733 28.8053 15.12C28.7653 15.2533 28.7386 15.4067 28.7253 15.58L28.6453 16.42L25.6053 16.3C25.672 14.9133 26.0386 13.8933 26.7053 13.24C27.3853 12.5733 28.3986 12.24 29.7453 12.24C30.9186 12.24 31.792 12.5667 32.3653 13.22C32.952 13.86 33.2453 14.6933 33.2453 15.72V21.12C33.2453 21.6 33.252 22.02 33.2653 22.38C33.292 22.74 33.3186 23.0533 33.3453 23.32C33.3853 23.5867 33.4186 23.8133 33.4453 24H30.5253C30.4853 23.6933 30.4386 23.36 30.3853 23C30.332 22.64 30.292 22.4267 30.2653 22.36C30.132 22.84 29.8786 23.2667 29.5053 23.64C29.1453 24.0133 28.6586 24.2 28.0453 24.2ZM29.2053 22C29.3386 22 29.4586 21.9733 29.5653 21.92C29.6853 21.8667 29.792 21.7933 29.8853 21.7C29.9786 21.6067 30.0586 21.5133 30.1253 21.42V18.26C29.8586 18.42 29.612 18.5867 29.3853 18.76C29.1586 18.92 28.9653 19.1 28.8053 19.3C28.6453 19.5 28.5186 19.72 28.4253 19.96C28.3453 20.1867 28.3053 20.4467 28.3053 20.74C28.3053 21.1267 28.3853 21.4333 28.5453 21.66C28.7053 21.8867 28.9253 22 29.2053 22ZM36.777 27.8V12.44H40.037V13.28C40.4237 12.9333 40.837 12.6733 41.277 12.5C41.717 12.3267 42.137 12.24 42.537 12.24C42.977 12.24 43.3504 12.3267 43.657 12.5C43.977 12.6733 44.237 12.92 44.437 13.24C44.637 13.5467 44.7837 13.9067 44.877 14.32C44.9704 14.7333 45.017 15.1733 45.017 15.64V20.62C45.017 21.34 44.917 21.9667 44.717 22.5C44.5304 23.0333 44.2504 23.4533 43.877 23.76C43.5037 24.0533 43.0437 24.2 42.497 24.2C42.0837 24.2 41.6637 24.1067 41.237 23.92C40.8237 23.72 40.4237 23.4533 40.037 23.12V27.8H36.777ZM40.897 22.1C41.1104 22.1 41.277 22.04 41.397 21.92C41.517 21.8 41.6037 21.6467 41.657 21.46C41.7237 21.26 41.757 21.04 41.757 20.8V15.4C41.757 15.1733 41.7304 14.9733 41.677 14.8C41.6237 14.6133 41.537 14.4667 41.417 14.36C41.297 14.2533 41.1437 14.2 40.957 14.2C40.7837 14.2 40.617 14.24 40.457 14.32C40.3104 14.3867 40.1704 14.48 40.037 14.6V21.8C40.1837 21.8933 40.3237 21.9667 40.457 22.02C40.6037 22.0733 40.7504 22.1 40.897 22.1ZM48.4947 24V12.44H51.7547V24H48.4947ZM48.4747 10.48V8.22H51.7547V10.48H48.4747ZM58.9277 24.2C57.9143 24.2 57.0677 23.9733 56.3877 23.52C55.721 23.0667 55.1743 22.3267 54.7477 21.3L56.9677 20.32C57.181 20.84 57.4277 21.2533 57.7077 21.56C58.001 21.8533 58.321 22 58.6677 22C58.921 22 59.1077 21.9467 59.2277 21.84C59.361 21.7333 59.4277 21.5867 59.4277 21.4C59.4277 21.0933 59.3077 20.8133 59.0677 20.56C58.841 20.3067 58.4277 19.9333 57.8277 19.44L56.9877 18.74C56.3743 18.22 55.8877 17.72 55.5277 17.24C55.181 16.7467 55.0077 16.14 55.0077 15.42C55.0077 14.7933 55.1677 14.24 55.4877 13.76C55.821 13.28 56.261 12.9067 56.8077 12.64C57.3543 12.3733 57.941 12.24 58.5677 12.24C59.5143 12.24 60.3077 12.5 60.9477 13.02C61.5877 13.54 62.0343 14.2733 62.2877 15.22L60.1877 16.18C60.1077 15.9267 59.9943 15.6733 59.8477 15.42C59.701 15.1667 59.521 14.9533 59.3077 14.78C59.1077 14.6067 58.8877 14.52 58.6477 14.52C58.4343 14.52 58.261 14.58 58.1277 14.7C58.0077 14.82 57.9477 14.98 57.9477 15.18C57.9477 15.4333 58.0877 15.7067 58.3677 16C58.661 16.2933 59.061 16.6467 59.5677 17.06L60.3877 17.78C60.721 18.06 61.0477 18.36 61.3677 18.68C61.6877 19 61.9477 19.3533 62.1477 19.74C62.361 20.1267 62.4677 20.5667 62.4677 21.06C62.4677 21.7267 62.301 22.3 61.9677 22.78C61.6343 23.2467 61.1943 23.6 60.6477 23.84C60.1143 24.08 59.541 24.2 58.9277 24.2ZM69.2042 24.2C68.3642 24.2 67.6442 24.0467 67.0442 23.74C66.4576 23.4333 66.0042 22.9933 65.6842 22.42C65.3642 21.8467 65.2042 21.1533 65.2042 20.34V16.1C65.2042 15.2733 65.3642 14.5733 65.6842 14C66.0042 13.4267 66.4576 12.9933 67.0442 12.7C67.6442 12.3933 68.3642 12.24 69.2042 12.24C70.0309 12.24 70.7309 12.3667 71.3042 12.62C71.8909 12.8733 72.3376 13.26 72.6442 13.78C72.9509 14.2867 73.1042 14.9333 73.1042 15.72V16.94H69.9642V15.62C69.9642 15.3133 69.9309 15.08 69.8642 14.92C69.8109 14.7467 69.7242 14.6267 69.6042 14.56C69.4976 14.4933 69.3642 14.46 69.2042 14.46C69.0442 14.46 68.9109 14.5067 68.8042 14.6C68.6976 14.68 68.6176 14.82 68.5642 15.02C68.5109 15.2067 68.4842 15.4733 68.4842 15.82V20.62C68.4842 21.14 68.5442 21.4933 68.6642 21.68C68.7976 21.8667 68.9842 21.96 69.2242 21.96C69.3976 21.96 69.5376 21.9267 69.6442 21.86C69.7509 21.78 69.8309 21.66 69.8842 21.5C69.9376 21.3267 69.9642 21.1 69.9642 20.82V19.28H73.1042V20.68C73.1042 21.4533 72.9442 22.1067 72.6242 22.64C72.3176 23.16 71.8709 23.5533 71.2842 23.82C70.7109 24.0733 70.0176 24.2 69.2042 24.2ZM80.1997 24.2C79.373 24.2 78.653 24.06 78.0397 23.78C77.4397 23.5 76.973 23.08 76.6397 22.52C76.3197 21.96 76.1597 21.26 76.1597 20.42V16.02C76.1597 15.18 76.3197 14.48 76.6397 13.92C76.973 13.36 77.4397 12.94 78.0397 12.66C78.653 12.38 79.373 12.24 80.1997 12.24C81.0264 12.24 81.7397 12.38 82.3397 12.66C82.953 12.94 83.4264 13.36 83.7597 13.92C84.093 14.48 84.2597 15.18 84.2597 16.02V20.42C84.2597 21.26 84.093 21.96 83.7597 22.52C83.4264 23.08 82.953 23.5 82.3397 23.78C81.7397 24.06 81.0264 24.2 80.1997 24.2ZM80.2197 22.04C80.433 22.04 80.5997 21.9867 80.7197 21.88C80.8397 21.76 80.9197 21.6 80.9597 21.4C81.013 21.1867 81.0397 20.9333 81.0397 20.64V15.8C81.0397 15.5067 81.013 15.26 80.9597 15.06C80.9197 14.8467 80.8397 14.6867 80.7197 14.58C80.5997 14.46 80.433 14.4 80.2197 14.4C80.0064 14.4 79.8397 14.46 79.7197 14.58C79.5997 14.6867 79.513 14.8467 79.4597 15.06C79.4064 15.26 79.3797 15.5067 79.3797 15.8V20.64C79.3797 20.9333 79.4064 21.1867 79.4597 21.4C79.513 21.6 79.5997 21.76 79.7197 21.88C79.8397 21.9867 80.0064 22.04 80.2197 22.04Z" fill="white"/>
<path d="M91.52 24V16.74H90.15V15.9H93.98V16.74H92.65V24H91.52ZM96.9709 24L95.1609 15.9H96.2209L97.5009 21.87L98.7209 15.9H99.7509L97.9609 24H96.9709Z" fill="white"/>
<path opacity="0.2" d="M99.5 3.75V9.375C99.5 9.47446 99.4605 9.56984 99.3902 9.64017C99.3198 9.71049 99.2245 9.75 99.125 9.75H90.875C90.7755 9.75 90.6802 9.71049 90.6098 9.64017C90.5395 9.56984 90.5 9.47446 90.5 9.375V3.75C90.5 3.65054 90.5395 3.55516 90.6098 3.48484C90.6802 3.41451 90.7755 3.375 90.875 3.375H99.125C99.2245 3.375 99.3198 3.41451 99.3902 3.48484C99.4605 3.55516 99.5 3.65054 99.5 3.75Z" fill="white"/>
<path d="M99.125 2.99986H95.9047L97.5172 1.39205C97.577 1.31919 97.6075 1.22669 97.6029 1.13255C97.5983 1.0384 97.5588 0.949343 97.4922 0.882693C97.4255 0.816042 97.3365 0.776566 97.2423 0.771942C97.1482 0.767318 97.0557 0.797877 96.9828 0.857676L95 2.84518L93.0172 0.857676C92.9443 0.797877 92.8518 0.767318 92.7577 0.771942C92.6635 0.776566 92.5745 0.816042 92.5078 0.882693C92.4412 0.949343 92.4017 1.0384 92.3971 1.13255C92.3925 1.22669 92.423 1.31919 92.4828 1.39205L94.0953 2.99986H90.875C90.6761 2.99986 90.4853 3.07888 90.3447 3.21953C90.204 3.36019 90.125 3.55095 90.125 3.74986V9.37486C90.125 9.57378 90.204 9.76454 90.3447 9.90519C90.4853 10.0458 90.6761 10.1249 90.875 10.1249H99.125C99.3239 10.1249 99.5147 10.0458 99.6553 9.90519C99.796 9.76454 99.875 9.57378 99.875 9.37486V3.74986C99.875 3.55095 99.796 3.36019 99.6553 3.21953C99.5147 3.07888 99.3239 2.99986 99.125 2.99986V2.99986ZM99.125 9.37486H90.875V3.74986H99.125V9.37486Z" fill="white"/>
</svg>
